<svg width="16" height="16" viewBox="0 0 16 16" fill="none" xmlns="http://www.w3.org/2000/svg">
<path d="M8.01868 8.00003C8.01868 6.52728 9.21258 5.33337 10.6853 5.33337C12.1581 5.33337 13.352 6.52731 13.352 8.00003C13.352 9.47281 12.1581 10.6667 10.6853 10.6667C9.21255 10.6667 8.01868 9.47278 8.01868 8.00003Z" fill="#00BCFF"/>
<path d="M2.68542 13.3333C2.68542 11.8606 3.87933 10.6667 5.35208 10.6667L6.77318 9.91638L8.01874 10.6667V13.3333C8.01874 14.8061 6.82483 16 5.35208 16C3.87933 16 2.68542 14.8061 2.68542 13.3333Z" fill="#00CF7F"/>
<path d="M8.01869 0L6.56763 2.52094L8.01869 5.33331H10.6479C12.1207 5.33331 13.3146 4.13941 13.3146 2.66666C13.3146 1.19391 12.1207 0 10.6479 0H8.01869Z" fill="#FF7361"/>
<path d="M2.64795 2.66666C2.64795 4.13941 3.84186 5.33331 5.31461 5.33331L6.7292 5.87969L8.01867 5.33331V0H5.31457C3.84186 0 2.64795 1.19391 2.64795 2.66666Z" fill="#FF4D12"/>
<path d="M2.68542 7.99994C2.68542 9.47272 3.87933 10.6666 5.35208 10.6666H8.01874V5.33325H5.35208C3.87933 5.33325 2.68542 6.52719 2.68542 7.99994Z" fill="#B659FF"/>
</svg>
