<svg width="16" height="16" viewBox="0 0 16 16" fill="none" xmlns="http://www.w3.org/2000/svg">
<path d="M12.7133 3.78508C12.2966 4.18975 11.2222 5.25384 9.97876 6.49481C7.98648 8.48789 7.05539 9.39087 6.97809 9.41124L12.7133 3.78508ZM12.7133 3.78508C12.7122 3.75645 12.7109 3.73157 12.7097 3.71072C12.708 3.68355 12.7065 3.66689 12.7055 3.6587C12.7048 3.65336 12.7051 3.65774 12.7073 3.66642L12.7073 3.66662C12.7082 3.66987 12.7122 3.6854 12.7218 3.70413C12.726 3.71223 12.7354 3.7292 12.7523 3.74735C12.8439 3.65872 12.8949 3.61084 12.898 3.61084C12.9042 3.61084 12.9099 3.68456 12.9145 3.81015C12.9423 3.80783 12.9624 3.8003 12.9695 3.79759C12.9811 3.79312 12.9899 3.78848 12.9944 3.78596C13.0036 3.78085 13.0102 3.7762 13.0124 3.77462L13.0185 3.77004L13.0206 3.76836C13.0208 3.76825 13.0206 3.76839 13.02 3.76886C13.0192 3.76961 13.0174 3.7712 13.0144 3.7739C13.0053 3.78218 12.9909 3.79561 12.9709 3.81462C12.9555 3.82929 12.9373 3.84675 12.9164 3.86692C12.9226 4.07156 12.9265 4.38047 12.9265 4.72528C12.9265 5.8114 12.9304 5.83973 13.02 5.97004C13.1908 6.22224 13.3168 6.25884 13.9918 6.24659C14.6423 6.23434 14.7034 6.21413 14.8944 5.95366C14.9796 5.84416 14.9798 5.79528 14.9918 3.21258L14.9919 3.19173L15 0.539593L14.9106 0.356607C14.8537 0.250797 14.7602 0.141006 14.6748 0.0921593M12.7133 3.78508L6.90624 9.219M6.90624 9.219C6.9102 9.21582 6.91467 9.21217 6.91969 9.20799C6.95266 9.1806 7.00033 9.13847 7.06416 9.07988C7.19131 8.96318 7.37558 8.78769 7.62095 8.54933C8.11132 8.07298 8.84131 7.34981 9.83731 6.35341L9.83748 6.35324C10.6325 5.55981 11.3585 4.83857 11.8879 4.31559C12.1525 4.05415 12.3683 3.84202 12.519 3.69512C12.5943 3.62176 12.6538 3.56419 12.6953 3.52475C12.7159 3.50518 12.7329 3.48918 12.7456 3.47769C12.7516 3.4722 12.7584 3.46615 12.7648 3.46085C12.7676 3.45853 12.7732 3.45388 12.7802 3.44895C12.7833 3.44674 12.7906 3.44161 12.8004 3.43618C12.8052 3.43351 12.8142 3.42875 12.826 3.4242C12.8346 3.4209 12.8617 3.41084 12.898 3.41084C12.9674 3.41084 13.0147 3.44519 13.0377 3.4673C13.0598 3.4887 13.0719 3.51024 13.0772 3.52045C13.0881 3.54154 13.093 3.56023 13.0947 3.56679C13.0989 3.58309 13.1011 3.59882 13.1023 3.60836C13.105 3.62993 13.1071 3.65715 13.1089 3.68648C13.1126 3.74653 13.1157 3.83104 13.1183 3.9327C13.1234 4.13673 13.1265 4.41711 13.1265 4.72528C13.1265 5.27298 13.1276 5.54141 13.1391 5.69082C13.1447 5.76409 13.1519 5.79427 13.1569 5.80866C13.1605 5.8192 13.1641 5.82657 13.1848 5.85677L13.1856 5.85788C13.2566 5.96276 13.2966 5.99374 13.3717 6.01516C13.4749 6.04461 13.6438 6.05287 13.9882 6.04662C14.3251 6.04027 14.468 6.03082 14.5536 6.00299C14.61 5.98468 14.6412 5.96077 14.7331 5.83538L14.7331 5.83533L14.7366 5.83086C14.7401 5.82629 14.7419 5.82376 14.7428 5.82255C14.7436 5.82034 14.7455 5.81438 14.7479 5.80247C14.7565 5.75977 14.7647 5.67713 14.7708 5.50082C14.7828 5.15439 14.7858 4.49856 14.7919 3.20228L14.7919 3.19112L14.7919 3.1908L14.7999 0.585543L14.7328 0.448195C14.6863 0.363186 14.6168 0.289384 14.5755 0.265772L14.6748 0.0921593M6.90624 9.219C6.85293 9.22363 6.76823 9.22475 6.7011 9.21666L6.69609 9.21605L6.69609 9.21612C6.65863 9.21256 6.64114 9.20895 6.62812 9.20462C6.61665 9.2008 6.60068 9.19375 6.57321 9.17415C6.50963 9.12878 6.41808 9.04197 6.22863 8.85449C6.11887 8.74467 6.01361 8.63432 5.93241 8.54469C5.89167 8.49972 5.85801 8.46109 5.83324 8.431C5.8145 8.40822 5.80518 8.39547 5.80167 8.39066C5.80079 8.38946 5.80027 8.38875 5.80006 8.38851C5.78253 8.35226 5.76921 8.29471 5.76921 8.2275C5.76921 8.16646 5.7802 8.11338 5.79535 8.07699C5.79544 8.07689 5.79553 8.07679 5.79563 8.07668C5.80551 8.06536 5.82054 8.04878 5.84115 8.02656C5.88212 7.9824 5.94142 7.91999 6.01752 7.84092C6.1695 7.683 6.38592 7.46128 6.65104 7.19172C7.18113 6.65276 7.90441 5.92405 8.69294 5.13521C8.69294 5.1352 8.69295 5.13519 8.69296 5.13518C8.69299 5.13516 8.69302 5.13513 8.69304 5.13511L11.5635 2.26778L11.8967 1.93499L11.4258 1.92632L10.3201 1.90595M6.90624 9.219L10.3201 1.90595M14.6748 0.0921593C14.5366 0.0148306 14.4593 0.010849 11.9302 0.00273323C9.82417 -0.00538254 9.29977 0.00288677 9.17364 0.0475998M14.6748 0.0921593L14.5771 0.2667L14.5755 0.265793C14.5581 0.256026 14.5482 0.250476 14.5094 0.243816C14.458 0.234979 14.3684 0.227206 14.1924 0.221382C13.8435 0.209832 13.196 0.206796 11.9295 0.202732H11.9294C10.876 0.198672 10.2204 0.198726 9.81269 0.20533C9.6085 0.208636 9.46961 0.213547 9.37527 0.220103C9.32814 0.223379 9.29462 0.226902 9.27102 0.230372C9.25026 0.233426 9.2416 0.235827 9.24037 0.236159M9.17364 0.0475998L9.24271 0.235297C9.24193 0.235584 9.24115 0.235872 9.24037 0.236159M9.17364 0.0475998L9.24047 0.236105C9.24018 0.23621 9.24013 0.236224 9.24037 0.236159M9.17364 0.0475998C8.81991 0.177756 8.74262 0.360895 8.73864 1.04828L9.24037 0.236159M9.24037 0.236159C9.09395 0.290355 9.04262 0.339653 9.00853 0.418411C8.96294 0.523768 8.94067 0.701627 8.93864 1.04886C8.93864 1.27702 8.94203 1.39612 8.95307 1.47676C8.96245 1.54527 8.97677 1.58342 9.01016 1.64859L9.01062 1.64952C9.05378 1.73482 9.07522 1.7694 9.09732 1.79166C9.1124 1.80685 9.13716 1.8257 9.20748 1.84309C9.28341 1.86188 9.39746 1.87536 9.58134 1.88499C9.76318 1.89451 10.0011 1.89981 10.3201 1.90595M9.24037 0.236159L10.3201 1.90595" fill="black" stroke="white" stroke-width="0.4"/>
<path d="M0.147429 13.9913L0.0173242 13.7187L0.00507904 8.4553C-0.00559936 3.38288 -0.0162778 2.95351 0.16185 2.6272C0.187984 2.57933 0.218183 2.53367 0.253043 2.47589C0.492894 2.07731 0.923923 1.7804 1.37929 1.70307L0.147429 13.9913ZM0.147429 13.9913C0.293758 14.3004 0.574324 14.6258 0.826421 14.7722L0.147429 13.9913ZM1.41119 1.90052C1.0148 1.96835 0.634417 2.23002 0.424409 2.57902L0.424288 2.57922C0.409609 2.60354 0.396616 2.62459 0.385006 2.64339C0.336421 2.72207 0.312048 2.76155 0.289699 2.8385C0.260067 2.94053 0.236822 3.10723 0.222127 3.46198C0.195506 4.10466 0.19815 5.30275 0.203465 7.71172C0.203986 7.94761 0.204532 8.19511 0.205078 8.45484C0.205079 8.45485 0.205079 8.45487 0.205079 8.45488L0.217219 13.6732L0.32792 13.9051L0.327921 13.9051L0.328202 13.9057C0.460827 14.1859 0.716421 14.477 0.926853 14.5992L0.926853 14.5992L0.927317 14.5995C0.949547 14.6125 0.968628 14.6239 0.985578 14.6341C1.05663 14.6766 1.09023 14.6967 1.16136 14.7159C1.25803 14.742 1.41963 14.7627 1.76681 14.7762C2.38979 14.8003 3.55228 14.8002 5.87756 14.7999C6.12652 14.7999 6.38882 14.7999 6.6652 14.7999C9.00974 14.7999 10.3216 14.7979 11.0723 14.7887C11.4481 14.7842 11.6801 14.7778 11.8295 14.7693C11.9793 14.7608 12.034 14.7506 12.0617 14.7428C12.5764 14.5886 12.9786 14.154 13.0933 13.6235L13.0933 13.6234C13.0933 13.6234 13.0933 13.6234 13.0933 13.6233C13.0934 13.6225 13.0944 13.6168 13.0958 13.6042C13.0973 13.5908 13.0989 13.573 13.1005 13.5501C13.1037 13.5042 13.1068 13.4421 13.1096 13.3626C13.1152 13.2036 13.1198 12.9799 13.1233 12.686C13.1304 12.0985 13.1334 11.2352 13.1334 10.0578V6.86143H12.2966H11.4597V9.79347V12.9255V13.1255H11.2597H6.6649H2.07037H1.87037V12.9255V8.34949V3.77348V3.57348H2.07037H5.20115H8.13192V2.71584V1.8586L4.96984 1.86249C4.04318 1.86448 3.17672 1.86953 2.52695 1.87662C2.20197 1.88017 1.93172 1.88422 1.73542 1.88865C1.63717 1.89086 1.55824 1.89315 1.50056 1.89548C1.47165 1.89665 1.44899 1.89779 1.43235 1.89888C1.417 1.89988 1.41117 1.90057 1.41116 1.90053C1.41116 1.90052 1.41117 1.90052 1.41119 1.90052Z" fill="black" stroke="white" stroke-width="0.4"/>
</svg>
