<svg width="36" height="28" viewBox="0 0 36 28" fill="none" xmlns="http://www.w3.org/2000/svg">
<path d="M0 5C0 3.67392 0.526784 2.40215 1.46447 1.46447C2.40215 0.526784 3.67392 1.04221e-07 5 1.04221e-07H9C10.1527 -0.000235143 11.27 0.397784 12.1629 1.12669C13.0558 1.8556 13.6695 2.87064 13.9 4H32C33.0609 4 34.0783 4.42143 34.8284 5.17157C35.5786 5.92172 36 6.93913 36 8V24C36 24.5253 35.8965 25.0454 35.6955 25.5307C35.4945 26.016 35.1999 26.457 34.8284 26.8284C34.457 27.1999 34.016 27.4945 33.5307 27.6955C33.0454 27.8965 32.5253 28 32 28H4C3.47471 28 2.95457 27.8965 2.46927 27.6955C1.98396 27.4945 1.54301 27.1999 1.17157 26.8284C0.800139 26.457 0.5055 26.016 0.304482 25.5307C0.103463 25.0454 -6.15571e-09 24.5253 0 24V5ZM17 1.04221e-07C16.7348 1.04221e-07 16.4804 0.105357 16.2929 0.292894C16.1054 0.48043 16 0.734784 16 1C16 1.26522 16.1054 1.51957 16.2929 1.70711C16.4804 1.89464 16.7348 2 17 2H31C31.2652 2 31.5196 1.89464 31.7071 1.70711C31.8946 1.51957 32 1.26522 32 1C32 0.734784 31.8946 0.48043 31.7071 0.292894C31.5196 0.105357 31.2652 1.04221e-07 31 1.04221e-07H17Z" fill="#474747"/>
</svg>
