<svg width="60" height="60" viewBox="0 0 60 60" fill="none" xmlns="http://www.w3.org/2000/svg">
<circle cx="30" cy="30" r="30" fill="black"/>
<rect width="32" height="32" transform="translate(14 14)" fill="black"/>
<path fill-rule="evenodd" clip-rule="evenodd" d="M17.8373 17.2075C16.9806 17.2075 16.2834 17.9042 16.2834 18.7608L16.2834 34.5311C16.2834 35.3878 16.9806 36.085 17.8372 36.085L42.1628 36.085C43.0195 36.085 43.7166 35.3878 43.7166 34.5311L43.7167 18.7609C43.7167 17.9042 43.0194 17.2075 42.1628 17.2075H17.8373L17.8373 17.2075ZM42.1628 36.7434H17.8373C16.6177 36.7434 15.625 35.7513 15.625 34.5311L15.6251 18.7609C15.6251 17.5413 16.6177 16.5492 17.8372 16.5492H42.1628C43.3823 16.5492 44.375 17.5413 44.375 18.7609L44.375 34.5311C44.375 35.7513 43.3823 36.7434 42.1628 36.7434L42.1628 36.7434Z" fill="white"/>
<path fill-rule="evenodd" clip-rule="evenodd" d="M42.1628 18.7751H42.1634H42.1628ZM17.851 34.5173H42.1491V18.7751H17.851V34.5173ZM42.1628 35.1757H17.8373C17.4818 35.1757 17.1926 34.8865 17.1926 34.5311L17.1927 18.7608C17.1927 18.4053 17.4818 18.1167 17.8373 18.1167L42.1628 18.1167C42.5183 18.1167 42.8074 18.4053 42.8074 18.7608L42.8075 34.5311C42.8075 34.8865 42.5182 35.1757 42.1628 35.1757L42.1628 35.1757Z" fill="white"/>
<path fill-rule="evenodd" clip-rule="evenodd" d="M31.7256 41.96H28.2744C28.0927 41.96 27.9452 41.8126 27.9452 41.6308L27.9452 36.4142C27.9452 36.2325 28.0926 36.0851 28.2744 36.0851C28.4561 36.0851 28.6035 36.2325 28.6035 36.4143L28.6036 41.3017H31.3964V36.4142C31.3964 36.2325 31.5439 36.0851 31.7256 36.0851C31.9074 36.085 32.0548 36.2325 32.0548 36.4143V41.6308C32.0548 41.8125 31.9073 41.96 31.7256 41.96L31.7256 41.96Z" fill="white"/>
<path fill-rule="evenodd" clip-rule="evenodd" d="M23.2619 43.451C23.1676 43.451 23.0756 43.4099 23.0116 43.3356L21.7143 41.8165C21.6423 41.7319 21.6177 41.6171 21.6492 41.5102C21.68 41.4033 21.7635 41.3199 21.8698 41.2879L28.179 39.3826C28.3533 39.3306 28.5367 39.4289 28.5893 39.6026C28.6419 39.7769 28.5436 39.9603 28.3693 40.0129L22.5424 41.7725L23.3733 42.7452L28.1807 41.3153C28.3551 41.2633 28.5379 41.3628 28.5899 41.5371C28.6419 41.7114 28.5424 41.8949 28.3681 41.9463L23.3562 43.4373C23.3248 43.4464 23.2933 43.451 23.2619 43.451L23.2619 43.451Z" fill="white"/>
<path fill-rule="evenodd" clip-rule="evenodd" d="M36.7376 43.451C36.7068 43.451 36.6747 43.4464 36.6438 43.4373L31.632 41.9462C31.4576 41.8948 31.3582 41.7114 31.4102 41.5371C31.4622 41.3628 31.6451 41.2633 31.8194 41.3154L36.6268 42.7452L37.4577 41.7725L31.6308 40.0129C31.4565 39.9603 31.3582 39.7769 31.4108 39.6026C31.4634 39.4288 31.6468 39.3306 31.8205 39.3826L38.1304 41.2879C38.2367 41.3199 38.3201 41.4034 38.351 41.5102C38.3824 41.6171 38.3578 41.7319 38.2858 41.8165L36.988 43.3356C36.9246 43.4098 36.8325 43.451 36.7377 43.451L36.7376 43.451Z" fill="white"/>
<path fill-rule="evenodd" clip-rule="evenodd" d="M21.4188 29.4734C20.2004 29.4734 19.2089 28.4819 19.2089 27.2635L19.2089 24.1483C19.2089 23.9665 19.3563 23.8191 19.538 23.8191C19.7198 23.8191 19.8672 23.9665 19.8672 24.1483L19.8673 27.2635C19.8673 28.119 20.5633 28.8151 21.4188 28.8151C21.6709 28.8151 21.912 28.7556 22.1349 28.6385C22.6499 28.3676 22.9698 27.8407 22.9698 27.2635L22.9699 24.1483C22.9699 23.9665 23.1173 23.8191 23.299 23.8191C23.4808 23.8191 23.6282 23.9665 23.6282 24.1483L23.6283 27.2635C23.6283 28.0864 23.1733 28.8362 22.4412 29.2208C22.1275 29.386 21.7737 29.4734 21.4188 29.4734L21.4188 29.4734Z" fill="white"/>
<path fill-rule="evenodd" clip-rule="evenodd" d="M27.7624 29.4735C27.6515 29.4735 27.5429 29.4175 27.4812 29.3157L24.4386 24.3197C24.3437 24.1643 24.3928 23.9614 24.5483 23.8671C24.7038 23.7728 24.906 23.822 25.0009 23.9769L28.0435 28.9728C28.1378 29.1283 28.0887 29.3306 27.9332 29.4255C27.8801 29.458 27.8206 29.4735 27.7624 29.4734L27.7624 29.4735Z" fill="white"/>
<path fill-rule="evenodd" clip-rule="evenodd" d="M24.7192 29.4734C24.6609 29.4734 24.602 29.458 24.5483 29.4254C24.3929 29.3306 24.3437 29.1283 24.4386 28.9728L27.4812 23.9769C27.5755 23.822 27.7784 23.7728 27.9332 23.8671C28.0887 23.9614 28.1378 24.1643 28.0435 24.3198L25.001 29.3157C24.9387 29.4174 24.83 29.4734 24.7192 29.4734H24.7192Z" fill="white"/>
<path fill-rule="evenodd" clip-rule="evenodd" d="M39.2076 29.4757C39.0259 29.4757 38.8784 29.3283 38.8784 29.1466L38.8785 24.1461C38.8785 23.9643 39.0259 23.8169 39.2076 23.8169C39.3893 23.8169 39.5368 23.9643 39.5368 24.1461L39.5368 29.1466C39.5368 29.3284 39.3893 29.4758 39.2076 29.4758L39.2076 29.4757Z" fill="white"/>
<path fill-rule="evenodd" clip-rule="evenodd" d="M40.462 24.4751H37.9538C37.772 24.4751 37.6245 24.3277 37.6245 24.146C37.6246 23.9642 37.772 23.8168 37.9537 23.8168L40.462 23.8168C40.6437 23.8168 40.7911 23.9642 40.7911 24.146C40.7912 24.3277 40.6437 24.4751 40.462 24.4751H40.462Z" fill="white"/>
<path fill-rule="evenodd" clip-rule="evenodd" d="M40.462 29.4757H37.9538C37.772 29.4757 37.6245 29.3283 37.6245 29.1466C37.6246 28.9648 37.772 28.8174 37.9537 28.8174L40.462 28.8174C40.6437 28.8174 40.7911 28.9649 40.7911 29.1466C40.7912 29.3283 40.6437 29.4758 40.462 29.4757H40.462Z" fill="white"/>
<path fill-rule="evenodd" clip-rule="evenodd" d="M34.51 29.4734C33.2915 29.4734 32.3005 28.4819 32.3005 27.2635L32.3006 24.1483C32.3006 23.9665 32.448 23.8191 32.6297 23.8191C32.8115 23.8191 32.9589 23.9665 32.9589 24.1483L32.959 27.2635C32.959 28.119 33.6544 28.8151 34.5099 28.8151C34.7625 28.8151 35.0031 28.7556 35.2266 28.6385C35.7415 28.3676 36.0615 27.8407 36.0615 27.2635L36.0615 24.1483C36.0615 23.9665 36.209 23.8191 36.3907 23.8191C36.5725 23.8191 36.7199 23.9665 36.7199 24.1483V27.2635C36.7199 28.0864 36.265 28.8362 35.5329 29.2208C35.2186 29.386 34.8648 29.4734 34.51 29.4734V29.4734Z" fill="white"/>
<path fill-rule="evenodd" clip-rule="evenodd" d="M28.8951 31.0993C28.8671 31.0993 28.8385 31.0953 28.8099 31.0879C28.6345 31.0404 28.5299 30.8604 28.5773 30.6844L30.7868 22.4372C30.8342 22.2617 31.0148 22.1577 31.1902 22.2046C31.3657 22.2514 31.4702 22.4321 31.4228 22.6075L29.2134 30.8547C29.174 31.0021 29.0408 31.0993 28.8951 31.0993L28.8951 31.0993Z" fill="white"/>
</svg>
