<svg width="16" height="16" viewBox="0 0 16 16" fill="none" xmlns="http://www.w3.org/2000/svg">
<g clip-path="url(#clip0_116_721)">
<path d="M2.83333 0.199951H13.1667C14.7315 0.199951 16 1.46848 16 3.03328V12.9666C16 14.5314 14.7315 15.8 13.1667 15.8H2.83333C1.26853 15.8 0 14.5314 0 12.9666V3.03328C0 1.46848 1.26853 0.199951 2.83333 0.199951Z" fill="#470137"/>
<path d="M8.41119 4.30259L6.41477 7.59772L8.55071 11.0968C8.5644 11.1212 8.56824 11.1501 8.56146 11.1773C8.55424 11.2024 8.52928 11.1866 8.48634 11.1937H6.96223C6.85485 11.1937 6.77973 11.1899 6.73679 11.1182C6.59358 10.8392 6.45046 10.5619 6.30746 10.2864C6.16425 10.011 6.01219 9.73016 5.85132 9.44386C5.69032 9.15777 5.53111 8.86797 5.37368 8.57444H5.36293C5.21971 8.86072 5.07121 9.14696 4.91747 9.43311C4.76354 9.71938 4.61148 10.0038 4.46133 10.2864C4.31105 10.5691 4.15721 10.85 3.99981 11.129C3.97112 11.1934 3.92096 11.2 3.8495 11.2H2.37904C2.35051 11.2 2.33441 11.2113 2.33073 11.1826C2.3267 11.1564 2.33241 11.1297 2.34685 11.1075L4.41836 7.70503L2.40051 4.29184C2.37904 4.26334 2.37548 4.24009 2.38976 4.22209C2.40582 4.20353 2.42969 4.1936 2.45419 4.19525H3.96756C4.00056 4.19344 4.03356 4.19894 4.06418 4.21138C4.08984 4.22591 4.11187 4.24609 4.12858 4.27041C4.25739 4.55668 4.40051 4.84289 4.55792 5.12907C4.71526 5.41534 4.87444 5.69799 5.03556 5.97702C5.19656 6.25607 5.34505 6.53872 5.48102 6.82496H5.49177C5.63479 6.53163 5.7797 6.24541 5.92647 5.9663C6.07306 5.68724 6.22331 5.40637 6.37724 5.12373C6.53105 4.84114 6.67955 4.56027 6.8227 4.28116C6.83092 4.25466 6.8457 4.23069 6.86563 4.21141C6.89213 4.19797 6.92191 4.19238 6.95151 4.19528H8.35756C8.39053 4.18716 8.42387 4.20728 8.43203 4.24025C8.43765 4.26328 8.42956 4.28756 8.41119 4.30259Z" fill="#FF61F6"/>
<path d="M11.4915 11.3329C10.9975 11.3404 10.508 11.2377 10.0586 11.0323C9.64001 10.8386 9.29005 10.5223 9.05509 10.1254C8.81172 9.72118 8.69009 9.21491 8.69016 8.60659C8.68613 8.11398 8.812 7.62899 9.05509 7.2005C9.30548 6.76408 9.67376 6.40696 10.1177 6.17009C10.5827 5.9125 11.1444 5.7837 11.8028 5.7837C11.8385 5.7837 11.885 5.78548 11.9423 5.78907C11.9995 5.79276 12.0675 5.7981 12.1463 5.80516V3.69069C12.1463 3.64072 12.1678 3.61557 12.2107 3.61557H13.5631C13.5942 3.61113 13.6231 3.63275 13.6275 3.66388C13.6282 3.66922 13.6282 3.67463 13.6275 3.67997V10.0234C13.6275 10.1451 13.6329 10.2775 13.6436 10.4205C13.6543 10.5638 13.6633 10.6926 13.6704 10.8069C13.6731 10.8526 13.6476 10.8952 13.606 10.9143C13.2571 11.0598 12.8937 11.1677 12.522 11.2363C12.182 11.299 11.8372 11.3313 11.4915 11.3329ZM12.1463 10.002V7.07175C12.0883 7.05604 12.029 7.04525 11.9692 7.03954C11.896 7.03219 11.8226 7.0286 11.7491 7.02882C11.4886 7.02622 11.2312 7.08507 10.9978 7.20053C10.7704 7.31356 10.5762 7.48368 10.4343 7.69427C10.2876 7.90892 10.2142 8.19157 10.2142 8.54221C10.209 8.77618 10.2472 9.00911 10.3269 9.22913C10.3918 9.40644 10.4943 9.56756 10.6275 9.7014C10.7549 9.82455 10.9093 9.91639 11.0782 9.96974C11.2568 10.0275 11.4434 10.0565 11.631 10.0556C11.7311 10.0556 11.8242 10.052 11.9101 10.0449C11.9901 10.0389 12.0693 10.0245 12.1463 10.002Z" fill="#FF61F6"/>
</g>
<defs>
<clipPath id="clip0_116_721">
<rect width="16" height="16" fill="white"/>
</clipPath>
</defs>
</svg>
